<svg width="20" height="16" viewBox="0 0 20 16" fill="none" xmlns="http://www.w3.org/2000/svg">
<path d="M16.836 0.265625H3.08594C1.36277 0.265625 -0.0390625 1.66745 -0.0390625 3.39063V12.6094C-0.0390625 14.3326 1.36277 15.7344 3.08594 15.7344H16.836C17.7945 15.7344 18.6867 15.3036 19.2836 14.5523C19.4991 14.281 19.5424 13.8162 19.1988 13.4891L19.1599 13.4523C19.1286 13.423 19.0828 13.3801 19.0244 13.3256C18.909 13.2181 18.7441 13.0644 18.5459 12.8804C18.1504 12.5128 17.6229 12.023 17.0951 11.5333C16.0399 10.5542 14.9843 9.57549 14.9843 9.57549C14.6678 9.28221 14.1736 9.30083 13.8802 9.6173C13.5869 9.93377 13.6055 10.428 13.922 10.7214C15.0659 11.7819 16.6251 13.2281 17.488 14.0303C17.2866 14.1226 17.065 14.1719 16.836 14.1719H3.08594C2.85401 14.1719 2.63383 14.1206 2.43561 14.0295L6.00023 10.7211C6.31654 10.4275 6.33485 9.93331 6.04142 9.61699C5.74784 9.30068 5.25346 9.28237 4.9373 9.57579L1.52924 12.7391C1.52573 12.6962 1.52344 12.653 1.52344 12.6094V3.39063C1.52344 3.3447 1.52588 3.29938 1.5297 3.25452L7.4373 8.692C7.5815 8.82475 7.77025 8.89845 7.96632 8.89845H11.9559C12.152 8.89845 12.3407 8.82475 12.4849 8.69216L18.3922 3.2559C18.396 3.30045 18.3985 3.34516 18.3985 3.39063V9.48439C18.3985 9.91591 18.7482 10.2656 19.1797 10.2656C19.6112 10.2656 19.961 9.91591 19.961 9.48439V3.39063C19.961 1.66745 18.5592 0.265625 16.836 0.265625ZM11.6512 7.33595H8.2712L2.43973 1.96851C2.63688 1.87863 2.85554 1.82813 3.08594 1.82813H16.836C17.0668 1.82813 17.2858 1.87879 17.4832 1.96912L11.6512 7.33595Z" fill="#8900F2"/>
</svg>
